<mxfile host="app.diagrams.net" modified="2023-02-03T12:46:30.486Z" agent="5.0 (X11; Linux x86_64) AppleWebKit/537.36 (KHTML, like Gecko) Chrome/109.0.0.0 Safari/537.36" etag="y9GzpcdiIBnUnayf31_c" version="20.8.15" type="github">
  <diagram id="C5RBs43oDa-KdzZeNtuy" name="Page-1">
    <mxGraphModel dx="797" dy="1632" grid="1" gridSize="10" guides="1" tooltips="1" connect="1" arrows="1" fold="1" page="1" pageScale="1" pageWidth="827" pageHeight="1169" math="0" shadow="0">
      <root>
        <mxCell id="WIyWlLk6GJQsqaUBKTNV-0" />
        <mxCell id="WIyWlLk6GJQsqaUBKTNV-1" parent="WIyWlLk6GJQsqaUBKTNV-0" />
        <mxCell id="pyEeHlHQqV8qRi74q65P-4" value="" style="edgeStyle=orthogonalEdgeStyle;rounded=0;orthogonalLoop=1;jettySize=auto;html=1;" edge="1" parent="WIyWlLk6GJQsqaUBKTNV-1" source="pyEeHlHQqV8qRi74q65P-0" target="pyEeHlHQqV8qRi74q65P-3">
          <mxGeometry relative="1" as="geometry" />
        </mxCell>
        <mxCell id="pyEeHlHQqV8qRi74q65P-0" value="start" style="ellipse;whiteSpace=wrap;html=1;" vertex="1" parent="WIyWlLk6GJQsqaUBKTNV-1">
          <mxGeometry x="360" y="-1150" width="80" height="40" as="geometry" />
        </mxCell>
        <mxCell id="pyEeHlHQqV8qRi74q65P-6" value="" style="edgeStyle=orthogonalEdgeStyle;rounded=0;orthogonalLoop=1;jettySize=auto;html=1;" edge="1" parent="WIyWlLk6GJQsqaUBKTNV-1" source="pyEeHlHQqV8qRi74q65P-3" target="pyEeHlHQqV8qRi74q65P-5">
          <mxGeometry relative="1" as="geometry" />
        </mxCell>
        <mxCell id="pyEeHlHQqV8qRi74q65P-3" value="int find_max(int ara[ ], int n;" style="whiteSpace=wrap;html=1;" vertex="1" parent="WIyWlLk6GJQsqaUBKTNV-1">
          <mxGeometry x="340" y="-1080" width="120" height="60" as="geometry" />
        </mxCell>
        <mxCell id="pyEeHlHQqV8qRi74q65P-17" style="edgeStyle=orthogonalEdgeStyle;rounded=0;orthogonalLoop=1;jettySize=auto;html=1;exitX=0.5;exitY=1;exitDx=0;exitDy=0;" edge="1" parent="WIyWlLk6GJQsqaUBKTNV-1" source="pyEeHlHQqV8qRi74q65P-5" target="pyEeHlHQqV8qRi74q65P-9">
          <mxGeometry relative="1" as="geometry" />
        </mxCell>
        <mxCell id="pyEeHlHQqV8qRi74q65P-5" value="int ara[ ] = {-100 , 0, 53 , 22 , 83 , 23 , 89 , -132 , 201, 3, 85};&lt;br&gt;int n = 11;" style="whiteSpace=wrap;html=1;" vertex="1" parent="WIyWlLk6GJQsqaUBKTNV-1">
          <mxGeometry x="350" y="-990" width="120" height="60" as="geometry" />
        </mxCell>
        <mxCell id="pyEeHlHQqV8qRi74q65P-9" value="printf(&quot;%d&quot;, max);" style="shape=parallelogram;perimeter=parallelogramPerimeter;whiteSpace=wrap;html=1;fixedSize=1;" vertex="1" parent="WIyWlLk6GJQsqaUBKTNV-1">
          <mxGeometry x="340" y="-860" width="120" height="30" as="geometry" />
        </mxCell>
        <mxCell id="pyEeHlHQqV8qRi74q65P-16" style="edgeStyle=orthogonalEdgeStyle;rounded=0;orthogonalLoop=1;jettySize=auto;html=1;entryX=1;entryY=0.5;entryDx=0;entryDy=0;" edge="1" parent="WIyWlLk6GJQsqaUBKTNV-1" source="pyEeHlHQqV8qRi74q65P-14" target="pyEeHlHQqV8qRi74q65P-3">
          <mxGeometry relative="1" as="geometry" />
        </mxCell>
        <mxCell id="pyEeHlHQqV8qRi74q65P-14" value="int find_max(int ara[ ], int n;" style="whiteSpace=wrap;html=1;" vertex="1" parent="WIyWlLk6GJQsqaUBKTNV-1">
          <mxGeometry x="522" y="-1080" width="120" height="60" as="geometry" />
        </mxCell>
        <mxCell id="pyEeHlHQqV8qRi74q65P-24" value="" style="edgeStyle=orthogonalEdgeStyle;rounded=0;orthogonalLoop=1;jettySize=auto;html=1;" edge="1" parent="WIyWlLk6GJQsqaUBKTNV-1" source="pyEeHlHQqV8qRi74q65P-22" target="pyEeHlHQqV8qRi74q65P-23">
          <mxGeometry relative="1" as="geometry" />
        </mxCell>
        <mxCell id="pyEeHlHQqV8qRi74q65P-22" value="int max = ara[ 0 ];&lt;br&gt;int i;" style="rounded=0;whiteSpace=wrap;html=1;" vertex="1" parent="WIyWlLk6GJQsqaUBKTNV-1">
          <mxGeometry x="760" y="-1160" width="120" height="60" as="geometry" />
        </mxCell>
        <mxCell id="pyEeHlHQqV8qRi74q65P-27" style="edgeStyle=orthogonalEdgeStyle;rounded=0;orthogonalLoop=1;jettySize=auto;html=1;exitX=1;exitY=0.5;exitDx=0;exitDy=0;entryX=0.5;entryY=0;entryDx=0;entryDy=0;" edge="1" parent="WIyWlLk6GJQsqaUBKTNV-1" source="pyEeHlHQqV8qRi74q65P-23" target="pyEeHlHQqV8qRi74q65P-25">
          <mxGeometry relative="1" as="geometry" />
        </mxCell>
        <mxCell id="pyEeHlHQqV8qRi74q65P-23" value="i &amp;lt; n" style="rhombus;whiteSpace=wrap;html=1;rounded=0;" vertex="1" parent="WIyWlLk6GJQsqaUBKTNV-1">
          <mxGeometry x="780" y="-1080" width="80" height="80" as="geometry" />
        </mxCell>
        <mxCell id="pyEeHlHQqV8qRi74q65P-36" style="edgeStyle=orthogonalEdgeStyle;rounded=0;orthogonalLoop=1;jettySize=auto;html=1;exitX=0;exitY=0.5;exitDx=0;exitDy=0;entryX=1;entryY=0.5;entryDx=0;entryDy=0;" edge="1" parent="WIyWlLk6GJQsqaUBKTNV-1" source="pyEeHlHQqV8qRi74q65P-25" target="pyEeHlHQqV8qRi74q65P-35">
          <mxGeometry relative="1" as="geometry" />
        </mxCell>
        <mxCell id="pyEeHlHQqV8qRi74q65P-25" value="(ara[i] &amp;gt; max)" style="rhombus;whiteSpace=wrap;html=1;rounded=0;" vertex="1" parent="WIyWlLk6GJQsqaUBKTNV-1">
          <mxGeometry x="827" y="-980" width="83" height="80" as="geometry" />
        </mxCell>
        <mxCell id="pyEeHlHQqV8qRi74q65P-31" value="" style="edgeStyle=orthogonalEdgeStyle;rounded=0;orthogonalLoop=1;jettySize=auto;html=1;" edge="1" parent="WIyWlLk6GJQsqaUBKTNV-1" source="pyEeHlHQqV8qRi74q65P-29" target="pyEeHlHQqV8qRi74q65P-30">
          <mxGeometry relative="1" as="geometry">
            <Array as="points">
              <mxPoint x="930" y="-757" />
            </Array>
          </mxGeometry>
        </mxCell>
        <mxCell id="pyEeHlHQqV8qRi74q65P-29" value="max = ara [i]" style="rounded=0;whiteSpace=wrap;html=1;" vertex="1" parent="WIyWlLk6GJQsqaUBKTNV-1">
          <mxGeometry x="910" y="-890" width="80" height="50" as="geometry" />
        </mxCell>
        <mxCell id="pyEeHlHQqV8qRi74q65P-30" value="end" style="ellipse;whiteSpace=wrap;html=1;rounded=0;" vertex="1" parent="WIyWlLk6GJQsqaUBKTNV-1">
          <mxGeometry x="940" y="-830" width="80" height="35" as="geometry" />
        </mxCell>
        <mxCell id="pyEeHlHQqV8qRi74q65P-34" value="" style="curved=1;endArrow=classic;html=1;rounded=0;" edge="1" parent="WIyWlLk6GJQsqaUBKTNV-1">
          <mxGeometry width="50" height="50" relative="1" as="geometry">
            <mxPoint x="910" y="-940" as="sourcePoint" />
            <mxPoint x="940" y="-900" as="targetPoint" />
            <Array as="points">
              <mxPoint x="960" y="-940" />
              <mxPoint x="910" y="-990" />
            </Array>
          </mxGeometry>
        </mxCell>
        <mxCell id="pyEeHlHQqV8qRi74q65P-37" style="edgeStyle=orthogonalEdgeStyle;rounded=0;orthogonalLoop=1;jettySize=auto;html=1;exitX=0.5;exitY=0;exitDx=0;exitDy=0;entryX=0;entryY=0.5;entryDx=0;entryDy=0;" edge="1" parent="WIyWlLk6GJQsqaUBKTNV-1" source="pyEeHlHQqV8qRi74q65P-35" target="pyEeHlHQqV8qRi74q65P-23">
          <mxGeometry relative="1" as="geometry" />
        </mxCell>
        <mxCell id="pyEeHlHQqV8qRi74q65P-35" value="i++" style="rounded=0;whiteSpace=wrap;html=1;" vertex="1" parent="WIyWlLk6GJQsqaUBKTNV-1">
          <mxGeometry x="710" y="-960" width="60" height="40" as="geometry" />
        </mxCell>
      </root>
    </mxGraphModel>
  </diagram>
</mxfile>
